<svg id="Layer_1" enable-background="new 0 0 511.938 511.938" viewBox="0 0 511.938 511.938" xmlns="http://www.w3.org/2000/svg"><g><path d="m155.001.0c-35.065.0-63.592 28.527-63.592 63.592v42.826h93.696V20.001z" fill="#ffb655" style="fill:#865e3c"></path><g><path d="m49.023 391.674h413.893v30H49.023z" fill="#5b362a"></path></g><path d="m255.969 391.674h206.947v30H255.969z" fill="#401409"></path><path d="m255.969.0H155.104v270.369c0 83.43 67.875 151.305 151.305 151.305h79.569l-29.144-79.736V100.865c0-55.617-45.248-100.865-100.865-100.865z" fill="#90e36a"></path><path d="m385.979 421.674-29.144-79.736V100.865c-.001-55.617-45.249-100.865-100.866-100.865v413.029c15.783 5.597 32.763 8.645 50.441 8.645z" fill="#00cc76"></path><path d="m325.975 391.674v45.261c0 41.357 33.646 75.004 75.004 75.004h15V391.674z" fill="#00cc76"></path><path d="m325.975 391.674v45.261c0 41.357 33.646 75.004 75.004 75.004h15V391.674z" fill="#009986"></path><g><path d="m205.967 61.417h30v30.002h-30z" fill="#5b362a"></path></g><path d="m370.243 344.671c-18.896.0-34.268-15.373-34.268-34.268v-127.83H255.97v121.479c0 64.857 52.765 117.622 117.622 117.622h42.386v-77.003z" fill="#ff8596" style="fill:#c01c28"></path><path d="m370.243 344.671c-18.896.0-34.268-15.373-34.268-34.268v-127.83H255.97v121.479c0 64.857 52.765 117.622 117.622 117.622h42.386v-77.003z" fill="#ff415b" style="fill:#ed333b"></path><path d="m335.975 182.573h-25.001v124.83c0 35.438 28.831 64.268 64.268 64.268h40.737V262.577c0-44.115-35.89-80.004-80.004-80.004z" fill="#ff415b" style="fill:#ed333b"></path><path d="m335.975 182.573h-25.001v124.83c0 35.438 28.831 64.268 64.268 64.268h40.737V262.577c0-44.115-35.89-80.004-80.004-80.004z" fill="#e50058" style="fill:#26a269"></path></g></svg>
